<?xml version="1.0" standalone="no"?>
<!DOCTYPE svg PUBLIC "-//W3C//DTD SVG 1.1//EN" "http://www.w3.org/Graphics/SVG/1.1/DTD/svg11.dtd" >
<!--
2013-9-30: Created.
-->
<svg>
<metadata>
Created by iconfont
</metadata>
<defs>

<font id="iconfont" horiz-adv-x="1024" >
  <font-face
    font-family="iconfont"
    font-weight="500"
    font-stretch="normal"
    units-per-em="1024"
    ascent="896"
    descent="-128"
  />
    <missing-glyph />
    
    <glyph glyph-name="icon37" unicode="&#58919;" d="M723.406696-99.219674l-422.813393 0c-54.1184 0-97.989215 44.686222-97.989215 99.807763l0 548.926578c0 55.119644 43.870815 99.802074 97.989215 99.802074l0 49.90483 48.994607 0 0-49.90483 137.915733 0 0 49.90483 48.994607 0 0-49.90483 137.913837 0 0 49.90483 48.996504 0 0-49.90483c54.1184 0 97.989215-44.68243 97.989215-99.802074l0-548.926578C821.395911-54.533452 777.525096-99.219674 723.406696-99.219674zM772.401304 549.51277c0 27.562667-21.936356 49.906726-48.994607 49.906726l-422.813393 0c-27.058252 0-48.996504-22.344059-48.996504-49.906726l0-548.926578c0-27.56077 21.936356-49.90483 48.996504-49.90483l422.813393 0c27.056356 0 48.994607 22.344059 48.994607 49.90483L772.401304 549.51277zM698.908444 100.392059l-373.816889 0c-13.530074 0-24.498252 11.174874-24.498252 24.951467 0 13.780385 10.968178 24.953363 24.498252 24.953363l373.816889 0c13.530074 0 24.496356-11.172978 24.496356-24.953363C723.4048 111.566933 712.438519 100.392059 698.908444 100.392059zM698.908444 250.100859l-373.816889 0c-13.530074 0-24.498252 11.171081-24.498252 24.953363 0 13.776593 10.968178 24.947674 24.498252 24.947674l373.816889 0c13.530074 0 24.496356-11.171081 24.496356-24.947674C723.4048 261.270044 712.438519 250.100859 698.908444 250.100859zM698.908444 399.809659l-373.816889 0c-13.530074 0-24.498252 11.165393-24.498252 24.94957 0 13.780385 10.968178 24.94957 24.498252 24.94957l373.816889 0c13.530074 0 24.496356-11.167289 24.496356-24.94957C723.4048 410.975052 712.438519 399.809659 698.908444 399.809659z"  horiz-adv-x="1024" />

    
    <glyph glyph-name="duigou" unicode="&#58942;" d="M837.376 673.216c-27.776 33.088-60.224 62.08-96.384 86.016-70.848 46.912-155.584 74.432-246.72 74.432s-175.872-27.52-246.72-74.432C126.4 678.976 46.272 541.568 46.272 385.728c0-247.04 200.96-448 448-448 137.664 0 260.864 62.464 343.104 160.448 65.344 77.888 104.896 178.112 104.896 287.488C942.272 495.104 902.72 595.328 837.376 673.216zM494.272 1.984c-211.584 0-383.68 172.16-383.68 383.68 0 182.4 128.192 334.848 299.008 373.568 27.328 6.208 55.488 10.112 84.672 10.112 29.184 0 57.344-3.904 84.672-10.112 114.048-25.856 207.936-102.784 258.432-205.184 25.152-51.072 40.64-107.712 40.64-168.384 0-60.672-15.424-117.312-40.64-168.384C774.72 90.368 645.184 1.984 494.272 1.984zM664.768 504.832 430.4 267.968 326.72 374.528c-12.352 12.672-32.704 12.992-45.44 0.64-12.672-12.352-12.992-32.704-0.64-45.44l126.592-130.112c0.064-0.064 0.192-0.128 0.32-0.192 1.92-1.92 4.288-3.072 6.464-4.416 1.408-0.832 2.624-2.112 4.096-2.688 3.904-1.6 8-2.368 12.16-2.368 4.096 0 8.192 0.832 12.032 2.368 1.216 0.512 2.176 1.536 3.328 2.176 2.496 1.408 5.056 2.688 7.232 4.864 0.064 0.064 0.192 0.128 0.256 0.192l257.344 260.16c12.48 12.608 12.352 32.96-0.256 45.44C697.6 517.568 677.184 517.44 664.768 504.832z"  horiz-adv-x="1024" />

    
    <glyph glyph-name="file-text-o" unicode="&#58902;" d="M800.038-64.011h-576.075c-52.98 0-95.984 43.004-95.984 95.984v639.892c0 52.98 43.004 95.984 95.984 95.984h447.925c17.717 0 31.995-14.277 31.995-31.995s-14.277-31.995-31.995-31.995l-447.925 0c-17.545 0-31.995-14.449-31.995-31.995v-639.892c0-17.717 14.449-31.995 31.995-31.995h575.903c17.717 0 31.995 14.277 31.995 31.995v512.086c0 17.717 14.277 31.995 31.995 31.995 17.717 0 31.995-14.277 31.995-31.995v-511.914c0.172-52.98-43.004-96.156-95.812-96.156zM612.026 448.075c-8.257 0-16.341 3.096-22.706 9.461-12.557 12.557-12.557 32.683 0 45.24l318.054 317.882c12.557 12.557 32.683 12.557 45.24 0s12.557-32.683 0-45.24l-318.054-318.054c-6.193-6.193-14.449-9.289-22.534-9.289zM479.919 448.075h-191.968c-17.717 0-31.995 14.277-31.995 31.995s14.277 31.995 31.995 31.995l191.968-0c17.717 0 31.995-14.277 31.995-31.995 0-17.717-14.277-31.995-31.995-31.995zM672.059 256.108h-384.108c-17.717 0-31.995 14.277-31.995 31.995s14.277 31.995 31.995 31.995h383.935c17.717 0 31.995-14.277 31.995-31.995s-14.277-31.995-31.823-31.995z"  horiz-adv-x="1024" />

    
    <glyph glyph-name="bukaixin" unicode="&#58955;" d="M879.75 746.125C782.375 842.75 653 896 515.25 896s-267.125-53.25-364.375-149.875S0 520.75 0 384s53.625-265.375 150.875-362.125S377.625-128 515.25-128c137.75 0 267.25 53.25 364.5 150C1080.625 221.625 1080.625 546.375 879.75 746.125zM832.25 69.25C747.625-14.875 635-61.25 515.25-61.25c-119.75 0-232.25 46.375-316.875 130.375-84.625 84.125-131.25 195.875-131.25 314.875s46.75 230.75 131.25 314.875c84.75 84.125 197.25 130.375 316.875 130.375s232.25-46.25 316.875-130.375C1006.875 525.25 1006.875 242.75 832.25 69.25zM331.625 574.875c-34.75 0-63.125-28.125-63.125-62.75s28.25-62.75 63.125-62.75c34.875 0 63.125 28.125 63.125 62.75C394.75 546.875 366.5 574.875 331.625 574.875L331.625 574.875 331.625 574.875 331.625 574.875 331.625 574.875zM698.75 574.875c-34.75 0-63.125-28.125-63.125-62.75S663.875 449.5 698.75 449.5c34.875 0 63.125 28.125 63.125 62.75C761.875 546.875 733.625 574.875 698.75 574.875L698.75 574.875 698.75 574.875 698.75 574.875 698.75 574.875zM758.25 62.25c-11.625 0-22.625 7.125-27 18.75-33.5 89.75-120.375 150-216.125 150S332.5 170.75 299 81c-5.5-14.875-22.125-22.5-37-16.875-14.875 5.5-22.5 22.125-16.875 37 20.375 54.5 56.25 101.125 103.875 134.75 48.75 34.5 106.25 52.75 166.125 52.75S632.5 270.25 681.25 235.75c47.625-33.75 83.625-80.25 103.875-134.75 5.5-14.875-2-31.375-16.875-37C765 62.875 761.625 62.25 758.25 62.25z"  horiz-adv-x="1031" />

    
    <glyph glyph-name="bukaixin-copy" unicode="&#58880;" d="M879.75 746.125c-97.375 96.625-226.75 149.875-364.5 149.875s-267.126-53.25-364.375-149.875-150.875-225.375-150.875-362.125 53.625-265.376 150.875-362.125 226.75-149.875 364.375-149.875c137.75 0 267.251 53.25 364.5 150 200.875 199.625 200.875 524.374 0 724.125zM832.25 69.25c-84.624-84.125-197.25-130.501-317.001-130.501s-232.249 46.377-316.875 130.375c-84.626 84.125-131.25 195.875-131.25 314.873s46.75 230.749 131.25 314.873c84.752 84.125 197.25 130.375 316.875 130.375s232.249-46.25 316.875-130.375c174.75-173.626 174.75-456.125 0.125-629.625zM331.625 574.875c-34.75 0-63.125-28.125-63.125-62.751s28.25-62.749 63.125-62.749c34.875 0 63.125 28.125 63.125 62.749 0 34.75-28.25 62.751-63.125 62.751v0 0 0 0zM698.749 574.875c-34.75 0-63.125-28.125-63.125-62.751s28.25-62.625 63.125-62.625c34.875 0 63.125 28.125 63.125 62.751 0 34.625-28.25 62.625-63.125 62.625v0 0 0 0zM758.25 62.25c-11.625 0-22.625 7.126-27.002 18.75-33.5 89.75-120.375 150-216.125 150s-182.625-60.25-216.125-150c-5.5-14.875-22.125-22.5-37.003-16.875-14.875 5.5-22.5 22.125-16.875 36.999 20.375 54.5 56.25 101.125 103.875 134.751 48.75 34.499 106.25 52.751 166.126 52.751s117.375-18.375 166.124-52.876c47.623-33.75 83.623-80.25 103.875-134.749 5.5-14.875-2-31.376-16.875-37.003-3.25-1.125-6.625-1.75-10-1.75z"  horiz-adv-x="1031" />

    
    <glyph glyph-name="dizhi" unicode="&#58627;" d="M512 505.461c-41.853 0-75.931 34.077-75.931 75.931 0 41.853 34.077 75.931 75.931 75.931s75.931-34.077 75.931-75.931c0-41.853-34.077-75.931-75.931-75.931zM512 626.922c-25.169 0-45.531-20.502-45.531-45.531 0-25.169 20.363-45.531 45.531-45.531s45.531 20.363 45.531 45.531c0 25.027-20.363 45.531-45.531 45.531zM511.577 132.311l-11.737 14.422c-0.565 0.565-50.48 62.215-99.686 141.681-66.881 108.029-100.816 196.26-100.816 262.293 0 125.703 95.302 228.074 212.519 228.074 56.983 0 110.432-23.898 150.589-67.164 39.732-42.986 61.791-100.109 62.075-160.769 0.285-66.033-33.653-154.265-100.959-262.293-49.49-79.466-99.686-141.115-100.252-141.681l-11.737-14.563zM512 748.383c-100.393 0-182.121-88.657-182.121-197.676 0-124.006 139.984-315.317 181.838-369.756 42.137 54.579 182.971 245.892 182.544 369.756-0.285 53.165-19.372 102.939-54.015 140.268-34.358 37.047-79.889 57.407-128.25 57.407zM1008.308-10.784h-992.614l183.677 334.124h145.639v-30.401h-127.681l-150.307-273.323h889.961l-150.307 273.323h-127.681v30.401h145.639z"  horiz-adv-x="1024" />

    
    <glyph glyph-name="bukaixin1" unicode="&#58907;" d="M512 896a512 512 0 1 1 0-1024A512 512 0 0 1 512 896z m0-962.56A450.56 450.56 0 1 0 512 834.56a450.56 450.56 0 0 0 0-901.12zM348.16 404.48c33.92 0 61.44 48 61.44 81.92s-27.52 81.92-61.44 81.92-61.44-48-61.44-81.92 27.52-81.92 61.44-81.92z m327.68 0c33.92 0 61.44 48 61.44 81.92s-27.52 81.92-61.44 81.92-61.44-48-61.44-81.92 27.52-81.92 61.44-81.92z m-315.776-279.68a188.544 188.544 0 0 0 310.464-2.688 75.52 75.52 0 0 1 32.512 7.296c12.16 6.144 15.808 18.176 18.496 25.6-43.392 74.752-120.64 105.792-208.384 105.792-89.216 0-166.016-36.352-208.96-113.152a52.672 52.672 0 0 1 21.312-18.24c9.152-3.968 22.016-4.928 34.56-4.608z"  horiz-adv-x="1024" />

    
    <glyph glyph-name="vip" unicode="&#59051;" d="M778.24 896l-423.253333-416.426667v416.426667h-354.986667v-116.053333h116.053333v-887.466667l942.08 1003.52z"  horiz-adv-x="1092" />

    
    <glyph glyph-name="you" unicode="&#59010;" d="M512.198835 896a511.801165 511.801165 0 1 1 511.801165-512.198835A512.596505 512.596505 0 0 1 512.198835 896z m0-994.174757A481.975922 481.975922 0 1 0 994.174757 383.801165 482.771262 482.771262 0 0 0 512.198835-98.174757zM406.418641 600.928932a547.193786 547.193786 0 0 0-110.949903-188.893204 307.398835 307.398835 0 0 0 20.678835-34.994951 502.654757 502.654757 0 0 1 39.76699 50.504077v-260.871456h33.801942V482.423301a830.334757 830.334757 0 0 1 50.106408 108.563883zM727.735922 489.979029H556.737864c0 35.392621 2.386019 71.182913 2.386019 106.177864h-34.199611v-106.177864h-107.370874v-33.801942h104.984854c-7.555728-106.973204-31.415922-204.8-112.540582-261.269126a112.142913 112.142913 0 0 0 26.246213-25.848544c86.294369 62.831845 112.540583 170.202718 119.300971 287.11767h172.191068zM672.062136 500.318447l26.246214 19.485825a575.42835 575.42835 0 0 1-65.217865 69.989903l-24.655534-17.497476a490.72466 490.72466 0 0 0 63.627185-71.978252zM678.822524 212.405437h-48.118058c-14.316117 0-16.702136 3.181359-16.702136 17.497476V418.796117h-34.597281v-188.893204c0-39.76699 9.941748-50.106408 47.322718-50.106408h55.276116c34.199612 0 43.346019 19.485825 46.925049 90.668738a107.768544 107.768544 0 0 0-31.415922 15.111456c-1.98835-62.434175-4.772039-73.171262-18.690486-73.171262z"  horiz-adv-x="1024" />

    
    <glyph glyph-name="yao" unicode="&#58945;" d="M520.16128-112.72192c-133.20192 0-258.51904 51.56864-352.70656 145.36192C73.2672 126.56128 21.2992 251.33568 21.2992 384s51.968 257.43872 146.15552 351.36512c94.18752 93.77792 219.50464 145.3568 352.70656 145.3568 133.19168 0 258.5088-51.56864 352.5632-145.3568C967.04512 641.57696 1018.88 516.79744 1018.88 384.128c0-132.80256-51.83488-257.58208-146.15552-351.36-94.1824-93.78816-219.37664-145.48992-352.5632-145.48992z m0 953.35936c-122.51648 0-237.81376-47.42656-324.3776-133.72928C109.07648 620.73344 61.37856 505.97376 61.37856 384c0-121.96864 47.6928-236.72832 134.4-322.89792 86.7072-86.1696 201.86624-133.73952 324.38272-133.73952 122.50112 0 237.6704 47.44192 324.37248 133.73952 86.7072 86.2976 134.4 200.92928 134.4 322.89792 0 121.97376-47.6928 236.73344-134.4 322.90304-86.70208 86.31296-201.87136 133.7344-324.37248 133.7344zM200.00256 443.6736h65.1008c39.7568 0 57.856-16.27648 54.25152-48.82944v-217.01632c25.30304-72.29952 74.13248-106.68032 146.4832-103.08096h358.0672c14.45376-10.84928 14.45376-21.69856 0-32.54272H482.11456c-79.59552-7.20384-137.45664 19.92704-173.60896 81.38752-18.0992-36.16256-45.22496-63.27808-81.3824-81.38752-18.0992 3.64544-21.69856 14.49472-10.84928 32.54272 43.40224 21.70368 66.88256 50.65728 70.528 86.8096v217.0112c3.60448 21.69856-7.24992 32.54272-32.54784 32.54272H200.00256c-14.49984 10.86464-14.49984 21.71392 0 32.5632z m48.82432 217.0112c25.30304-28.94848 52.4288-70.528 81.37728-124.77952-3.64544-18.0992-12.672-25.34912-27.12576-21.69856-32.55296 57.856-59.67872 99.43552-81.3824 124.77952 0.00512 18.05312 9.03168 25.30304 27.13088 21.69856z m227.86048 10.84928c18.05824 3.60448 27.12576-1.8176 27.12576-16.27648l-21.70368-37.97504h65.1008c39.76192 0 56.02816-16.2816 48.82944-48.82944v-108.50304c3.59936-36.19328-12.68224-52.47488-48.82944-48.82944H487.53664c7.20896-14.49472 12.63104-28.94336 16.27648-43.40224h103.08096c14.44352-10.84928 14.44352-21.69856 0-32.54784H444.1344v-43.40224h86.80448c36.16256 0 54.25664-14.49984 54.25664-43.41248 0-28.94848-1.82272-63.31904-5.4272-103.08096-7.24992-50.6112-52.48-59.66848-135.63392-27.12576-7.24992 21.69344-1.82272 32.54272 16.27648 32.54272 57.85088-25.29792 86.80448-25.29792 86.80448 0 3.60448 32.54784 5.4272 59.67872 5.4272 81.38752 3.6096 18.05312-5.4272 27.12576-27.12064 27.12576H444.1344c-10.84928-72.35072-28.94848-121.17504-54.25152-146.47808-14.49472-3.59936-21.69856 3.65056-21.69856 21.69856 32.55296 43.40224 47.00672 110.2848 43.40224 200.73472H357.33504c-10.8544 7.20384-10.8544 18.05312 0 32.54272h113.93024c-3.64544 14.45888-9.06752 28.90752-16.27648 43.40736h-43.40224c-28.94848-3.64544-43.40224 12.63616-43.40224 48.82944V568.45312c0 32.54784 14.45376 48.82944 43.40224 48.82944h32.54784l32.55296 54.25152z m59.67872-86.80448H427.85792c-18.0992 0-27.12576-10.84928-27.12576-32.54784v-21.69856h162.75968v27.12576c3.6096 18.05312-5.4272 27.12064-27.12576 27.12064z m27.12576-86.80448H400.73728v-27.12576c0-21.69856 9.02656-30.7712 27.12576-27.12576h108.50304c21.69856-3.64544 30.73536 5.4272 27.12576 27.12576v27.12576z m86.8096 162.75968c14.44864 14.45376 25.29792 12.63104 32.54784-5.4272l-5.43232-48.82944h146.47808c14.45376-14.49472 14.45376-25.344 0-32.54784h-43.40224c3.59936-122.99776-7.24992-224.26112-32.55296-303.81568 25.30304-57.89696 43.40736-104.89344 54.25664-141.056-7.24992-21.69856-18.0992-25.30304-32.54784-10.84928-10.84928 36.16256-25.344 74.13248-43.40224 113.93024-39.79776-68.75136-74.17856-113.93024-103.08608-135.6288-18.09408-3.59936-25.344 5.43232-21.69344 27.13088 43.40224 39.75168 77.73184 86.79936 103.08096 141.05088-18.0992 47.01184-37.98016 86.8096-59.67872 119.36256 0 18.05312 9.03168 25.30304 27.12576 21.69856 18.05312-28.94336 36.15744-63.31904 54.25664-103.07584 18.05312 65.1008 25.30304 155.50976 21.69856 271.2576h-75.9552c-7.2448-72.35072-19.92704-133.85216-37.97504-184.45824-18.0992-10.8544-28.94848-7.2448-32.54784 10.84928 25.30304 68.70528 41.57952 155.50464 48.82944 260.40832z"  horiz-adv-x="1024" />

    
    <glyph glyph-name="rili3" unicode="&#58636;" d="M853.33333333 793.6h-136.53333333v34.13333333a34.13333333 34.13333333 0 0 1-68.26666667 0V793.6H341.33333333v34.13333333a34.13333333 34.13333333 0 0 1-68.26666666 0V793.6H170.66666667a136.53333333 136.53333333 0 0 1-136.53333334-136.53333333v-614.4a136.53333333 136.53333333 0 0 1 136.53333334-136.53333334h682.66666666a136.53333333 136.53333333 0 0 1 136.53333334 136.53333334V657.06666667a136.53333333 136.53333333 0 0 1-136.53333334 136.53333333z m68.26666667-750.93333333a68.26666667 68.26666667 0 0 0-68.26666667-68.26666667H170.66666667a68.26666667 68.26666667 0 0 0-68.26666667 68.26666667V657.06666667a68.26666667 68.26666667 0 0 0 68.26666667 68.26666666h102.4v-34.13333333a34.13333333 34.13333333 0 0 1 68.26666666 0V725.33333333H648.53333333v-34.13333333a34.13333333 34.13333333 0 0 1 68.26666667 0V725.33333333h136.53333333a68.26666667 68.26666667 0 0 0 68.26666667-68.26666666v-614.4zM341.33333333 554.66666667h-68.26666666a34.13333333 34.13333333 0 0 1 0-68.26666667h68.26666666a34.13333333 34.13333333 0 0 1 0 68.26666667zM546.13333333 554.66666667h-68.26666666a34.13333333 34.13333333 0 0 1 0-68.26666667h68.26666666a34.13333333 34.13333333 0 0 1 0 68.26666667zM750.93333333 554.66666667h-68.26666666a34.13333333 34.13333333 0 0 1 0-68.26666667h68.26666666a34.13333333 34.13333333 0 0 1 0 68.26666667zM341.33333333 384h-68.26666666a34.13333333 34.13333333 0 0 1 0-68.26666667h68.26666666a34.13333333 34.13333333 0 0 1 0 68.26666667zM546.13333333 384h-68.26666666a34.13333333 34.13333333 0 0 1 0-68.26666667h68.26666666a34.13333333 34.13333333 0 0 1 0 68.26666667zM750.93333333 384h-68.26666666a34.13333333 34.13333333 0 0 1 0-68.26666667h68.26666666a34.13333333 34.13333333 0 0 1 0 68.26666667zM341.33333333 213.33333332999996h-68.26666666a34.13333333 34.13333333 0 0 1 0-68.26666666h68.26666666a34.13333333 34.13333333 0 0 1 0 68.26666666zM546.13333333 213.33333332999996h-68.26666666a34.13333333 34.13333333 0 0 1 0-68.26666666h68.26666666a34.13333333 34.13333333 0 0 1 0 68.26666666zM750.93333333 213.33333332999996h-68.26666666a34.13333333 34.13333333 0 0 1 0-68.26666666h68.26666666a34.13333333 34.13333333 0 0 1 0 68.26666666z"  horiz-adv-x="1024" />

    
    <glyph glyph-name="youhuiquan" unicode="&#58954;" d="M865.673846 413.144615H773.435077l102.872615 115.239385a18.353231 18.353231 0 0 1 0 23.788308l-21.188923 23.788307a13.942154 13.942154 0 0 1-21.267692 0L716.012308 443.864615 599.433846 574.385231a13.863385 13.863385 0 0 1-21.110154 0l-21.031384-23.552a18.116923 18.116923 0 0 1 0-23.630769l101.848615-113.979077H567.926154a16.384 16.384 0 0 1-11.736616-5.041231 17.092923 17.092923 0 0 1-4.804923-11.972923v-33.870769c0-9.452308 7.404308-17.014154 16.541539-17.014154h115.790769v-67.741539H567.926154a16.384 16.384 0 0 1-11.736616-4.962461 17.092923 17.092923 0 0 1-4.804923-11.972923v-33.87077c0-9.373538 7.404308-16.935385 16.541539-16.935384h115.790769v-84.598154c0-9.373538 7.404308-16.935385 16.541539-16.935385h33.083076c9.137231 0 16.541538 7.561846 16.541539 16.935385V209.92h115.790769c9.137231 0 16.541538 7.561846 16.541539 16.935385v33.870769a17.092923 17.092923 0 0 1-4.804923 11.972923 16.384 16.384 0 0 1-11.815385 4.962461H749.883077v67.741539h115.790769c4.411077 0 8.664615 1.732923 11.736616 4.962461a17.092923 17.092923 0 0 1 4.804923 11.972924v33.792a17.092923 17.092923 0 0 1-4.804923 11.972923 16.384 16.384 0 0 1-11.815385 5.04123zM148.716308-103.739077h1119.783384a69.789538 69.789538 0 0 1 49.624616 20.795077 71.049846 71.049846 0 0 1 20.40123 50.097231V168.172308s7.719385 41.432615-34.028307 51.593846l-3.780923 1.024c-12.839385 3.938462-56.713846 19.928615-82.944 64.433231v0.157538a86.882462 86.882462 0 0 0-3.465846 6.301539l-1.969231 3.938461-0.866462 1.732923-1.890461 4.332308a142.414769 142.414769 0 0 0 15.596307 137.924923c22.055385 30.404923 52.145231 44.898462 68.135385 50.806154 3.623385 1.181538 7.325538 2.363077 11.027692 3.387077v0.157538c41.905231 10.24 34.107077 51.593846 34.107077 51.593846V746.338462A70.419692 70.419692 0 0 1 1268.499692 817.230769H148.795077a70.419692 70.419692 0 0 1-69.947077-70.813538v-212.519385c0-6.301538 1.732923-12.603077 4.962462-18.038154a42.377846 42.377846 0 0 1 29.223384-21.740307v-0.315077a140.603077 140.603077 0 0 0 105.865846-137.058462c-0.078769-40.802462-17.171692-77.430154-44.662154-103.187692-14.651077-13.312-31.744-23.630769-50.333538-30.483692-3.702154-1.339077-7.325538-2.363077-11.027692-3.387077v-0.07877a41.905231 41.905231 0 0 1-29.77477-22.921846 35.84 35.84 0 0 1-4.332307-17.092923v-212.440615c0-18.825846 7.325538-36.785231 20.48-50.097231a69.789538 69.789538 0 0 1 49.467077-20.795077z m0 814.710154a35.446154 35.446154 0 0 0 34.973538 35.446154h1049.757539c9.294769 0 18.195692-3.780923 24.733538-10.397539a35.446154 35.446154 0 0 0 10.24-25.048615v-154.072615a212.440615 212.440615 0 0 1-139.894154-200.152616c0-89.796923 55.926154-169.984 139.894154-200.152615v-154.151385a35.446154 35.446154 0 0 0-34.973538-35.446154H183.689846a35.446154 35.446154 0 0 0-34.973538 35.446154V156.593231a212.440615 212.440615 0 0 1 139.894154 200.073846c0 89.875692-56.004923 170.062769-139.894154 200.231385V710.971077z"  horiz-adv-x="1417" />

    
    <glyph glyph-name="shoucangjia" unicode="&#58890;" d="M443.810001 821.525331v-232.726797h651.635031v186.181437a46.545359 46.545359 0 0 1-46.545359 46.54536zM1118.717712 565.525854h-698.18039v279.272156h628.362351a69.818039 69.818039 0 0 0 69.818039-69.818039z m-651.635031 46.545359h605.089671v162.908758a23.27268 23.27268 0 0 1-23.272679 23.27268h-581.816992zM69.818039 872.725226a46.545359 46.545359 0 0 1-46.545359-46.54536l5.352716-884.361827a46.545359 46.545359 0 0 1 46.545359-46.545359H1140.361304a46.545359 46.545359 0 0 1 46.545359 46.545359V639.998429a46.545359 46.545359 0 0 1-46.545359 46.545359H665.133185a93.090719 93.090719 0 0 0-50.036261 14.661789L357.46836 865.510695A48.407174 48.407174 0 0 1 332.333866 872.725226zM1140.361304-128H75.170755a69.818039 69.818039 0 0 0-69.818039 69.818039L0 826.179866A69.818039 69.818039 0 0 0 20.247231 875.285221 68.421678 68.421678 0 0 0 69.818039 895.997905h262.98128a69.818039 69.818039 0 0 0 37.469015-10.938159L628.362351 720.754628a69.818039 69.818039 0 0 1 36.770834-10.93816H1140.361304a69.818039 69.818039 0 0 0 69.818039-69.818039v-698.18039a69.818039 69.818039 0 0 0-69.818039-69.818039zM69.818039 849.452546a23.27268 23.27268 0 0 1-23.27268-23.27268l5.352717-884.361827a23.27268 23.27268 0 0 1 23.272679-23.27268H1140.361304a23.27268 23.27268 0 0 1 23.272679 23.27268V639.998429a23.27268 23.27268 0 0 1-23.272679 23.27268H665.133185a114.501584 114.501584 0 0 0-62.603508 18.385417l-257.628564 162.908757a23.27268 23.27268 0 0 1-12.567247 4.887263zM798.485639-3.02571l-40.261735 212.479565 159.185129 147.781516-217.599555 28.159943L605.089671 580.653096l-94.952533-195.257782-217.832281-28.159943 159.185129-147.781516-40.261736-212.479565L605.089671 100.304988zM830.369211-46.312894L605.089671 74.00686l-225.744992-120.319754 46.545359 247.388585-186.181437 173.148736L494.544443 407.271632 605.089671 633.947532 715.169446 407.271632l254.603116-32.581751-186.181438-173.148737zM344.435659 340.711769l132.188821-123.112476L442.180914 40.494201l162.908757 86.108915 162.908758-86.108915-33.745385 177.105092 132.421547 123.112476-181.061448 23.272679-79.359838 162.908758-79.592564-162.908758z"  horiz-adv-x="1210" />

    
    <glyph glyph-name="bukaixin2" unicode="&#58903;" d="M1087.278583 756.869565S758.312399 774.904992 578.782609 896c0 0 184.57971-258.679549 508.495974-139.130435zM508.495974 896C328.966184 774.904992 0 756.869565 0 756.869565 323.813205 637.320451 508.495974 896 508.495974 896zM545.494364 429.449275a65.648953 65.648953 0 0 0 38.338164-7.31723 192.721417 192.721417 0 0 0 37.822867-24.219002 121.713366 121.713366 0 0 1-30.299517 36.173914 74.615137 74.615137 0 0 1-47.819646 17.726248 58.743961 58.743961 0 0 1-27.00161-7.111112 82.447665 82.447665 0 0 1-21.230274-16.489533 146.859903 146.859903 0 0 1-26.795491-42.254428 78.428341 78.428341 0 0 1-6.389694-26.898551 59.774557 59.774557 0 0 1 5.874396-28.650563 78.634461 78.634461 0 0 1 39.2657-35.452496 149.127214 149.127214 0 0 1 46.78905-12.26409 157.165862 157.165862 0 0 1 23.703704 0 66.679549 66.679549 0 0 1 22.982287 4.8438 92.753623 92.753623 0 0 0-22.36393 3.091787 199.214171 199.214171 0 0 0-21.436393 6.286635 184.785829 184.785829 0 0 0-38.956521 18.241546 63.690821 63.690821 0 0 0-25.043479 27.00161 41.94525 41.94525 0 0 0 2.164252 32.876006c11.233494 25.043478 27.00161 50.190016 50.396135 54.415459zM456.450886 592.798712l-2.988728-8.450886-4.122383-7.832528a116.972625 116.972625 0 0 0-9.584542-15.149759c-3.607085-4.740741-7.729469-9.172303-11.542673-13.706924s-8.760064-8.038647-13.294686-11.954911l-14.428341-10.305958-15.561997-8.760065a305.571659 305.571659 0 0 0-140.36715-26.795491A347.310789 347.310789 0 0 0 103.059581 516.431562a139.954911 139.954911 0 0 0-53.694042 45.140097A145.004831 145.004831 0 0 0 41.223833 577.133655a137.069243 137.069243 0 0 0-6.389695 17.004831 117.384863 117.384863 0 0 0-5.256038 36.483092 104.605475 104.605475 0 0 1-0.721417-37.822866 115.838969 115.838969 0 0 1 4.431562-18.756844 154.589372 154.589372 0 0 1 7.21417-18.138486 142.84058 142.84058 0 0 1 54.827698-54.621578l17.417069-8.863124a155.619968 155.619968 0 0 1 18.138486-6.904992 263.523349 263.523349 0 0 1 37.307569-10.305959 454.080515 454.080515 0 0 1 76.16103-7.832528 171.594203 171.594203 0 0 1 19.169082 0l19.169083 0.927537c6.389694 0 12.779388 1.545894 19.169082 2.37037a184.270531 184.270531 0 0 1 19.066022 3.091787 275.68438 275.68438 0 0 1 37.204509 10.305958 198.492754 198.492754 0 0 1 35.349436 16.386474 151.806763 151.806763 0 0 1 55.549115 53.900161 126.351047 126.351047 0 0 1 8.244766 17.623188l3.297907 9.172303c0.721417 3.194847 1.339775 6.389694 1.958132 9.481482a69.152979 69.152979 0 0 1-2.679549 37.616747 72.141707 72.141707 0 0 0-3.400966-35.452496zM456.760064 588.470209l2.47343 0.515298h-2.164251zM34.009662 585.172303a13.913043 13.913043 0 0 0-1.442834 2.885668h-3.504026zM459.645733 640a258.57649 258.57649 0 0 0 1.855072-29.062802 73.378422 73.378422 0 0 0-1.236715-13.809984 27.619968 27.619968 0 0 0-1.855072-5.977456 11.336554 11.336554 0 0 0-1.030596-1.752012h2.164251l-2.47343-0.515298c-35.143317 1.648953-70.286634 2.885668-105.533011 3.504025s-72.141707 0.824477-107.697263 0.927537-72.141707-0.515298-107.697262-1.545894-69.359098-2.267311-104.090177-4.019324a13.913043 13.913043 0 0 1 1.442834-2.885668l-5.04992 2.782609h3.504026l-0.824476 2.061191A53.694042 53.694042 0 0 0 29.887279 597.127214a88.115942 88.115942 0 0 0-1.648954 14.016103 202.202899 202.202899 0 0 0 0.721417 29.268921c-1.648953-4.637681-3.194847-9.378422-4.534621-14.222222a149.333333 149.333333 0 0 1-2.988728-14.73752A90.692432 90.692432 0 0 1 20.611916 595.68438a63.690821 63.690821 0 0 1 0.721417-7.935588 28.753623 28.753623 0 0 1 2.679549-8.760064l1.236715-2.57649h3.710145c35.864734-1.752013 72.141707-2.988728 107.697263-3.607085s72.141707-0.824477 107.697262-0.927536 72.141707 0.515298 107.697263 1.648953 72.141707 2.37037 107.697262 4.225443h2.47343a7.832528 7.832528 0 0 1 2.061192 1.545894l1.133655 1.236715a15.665056 15.665056 0 0 1 1.545894 2.37037 20.611916 20.611916 0 0 1 1.648953 4.534622 37.719807 37.719807 0 0 1 1.030596 8.347826 76.161031 76.161031 0 0 1-1.442834 15.458937 163.555556 163.555556 0 0 1-8.553945 28.753623zM153.558776 578.885668s6.389694-69.256039 72.141707-61.835749 75.027375 39.162641 70.801932 61.835749zM197.874396 552.502415a13.706924 11.130435 0 1 1 27.413849 0 13.706924 11.130435 0 1 1-27.413849 0ZM1064.399356 592.798712l-2.988728-8.450886-4.019324-8.038647a116.972625 116.972625 0 0 0-9.584541-15.149759c-3.607085-4.740741-7.729469-9.172303-11.542673-13.706924s-8.760064-8.038647-13.294686-11.954911l-14.428341-10.305959-15.561997-8.760064a305.571659 305.571659 0 0 0-140.36715-26.795491A347.310789 347.310789 0 0 0 711.111111 516.431562a139.954911 139.954911 0 0 0-53.694042 45.140097 145.21095 145.21095 0 0 0-8.141707 15.561996 137.172303 137.172303 0 0 0-6.389694 17.004831 117.487923 117.487923 0 0 0-5.256038 36.483092 104.502415 104.502415 0 0 1-0.721417-37.822866 115.73591 115.73591 0 0 1 4.431562-18.756844 154.589372 154.589372 0 0 1 7.111111-18.138486 142.84058 142.84058 0 0 1 54.930757-54.827698l17.417069-8.863124a155.619968 155.619968 0 0 1 18.138486-6.904992 263.523349 263.523349 0 0 1 37.307569-10.305958 454.080515 454.080515 0 0 1 76.16103-7.832528 171.594203 171.594203 0 0 1 19.169082 0l19.169082 0.927536c6.389694 0 12.779388 1.545894 19.169082 2.370371a184.270531 184.270531 0 0 1 19.066023 3.091787 275.68438 275.68438 0 0 1 37.204509 10.305958 198.492754 198.492754 0 0 1 35.349436 16.386474 151.806763 151.806763 0 0 1 55.549115 53.900161 126.454106 126.454106 0 0 1 8.244766 17.623188l3.297907 9.172303c0.721417 3.194847 1.339775 6.389694 1.958132 9.481481a69.152979 69.152979 0 0 1-2.679549 37.616748 72.141707 72.141707 0 0 0-3.504026-35.246377zM1064.708535 588.470209l2.47343 0.515298h-2.164252zM641.958132 585.172303a13.913043 13.913043 0 0 0-1.442834 2.885668h-3.504026zM1067.594203 640a258.37037 258.37037 0 0 0 1.855072-29.062802 73.378422 73.378422 0 0 0-1.133655-13.809984 27.516908 27.516908 0 0 0-1.855072-5.977456 11.336554 11.336554 0 0 0-1.030596-1.752012h2.164251l-2.47343-0.515298c-35.143317 1.648953-70.286634 2.885668-105.533011 3.504025s-72.141707 0.824477-107.697263 0.927537-72.141707-0.515298-107.697262-1.545894-69.359098-2.267311-104.090177-4.019324a13.913043 13.913043 0 0 1 1.442834-2.885668l-5.04992 2.782609h3.504026l-0.824477 2.061191a53.694042 53.694042 0 0 0-1.752013 6.492754 87.806763 87.806763 0 0 0-1.648953 14.016103 202.202899 202.202899 0 0 0 0.721417 29.268921c-1.648953-4.637681-3.194847-9.378422-4.534621-14.222222a149.333333 149.333333 0 0 1-2.988728-14.73752 90.589372 90.589372 0 0 1-0.309179-14.84058 63.793881 63.793881 0 0 1 0.721417-7.935588 28.650564 28.650564 0 0 1 2.679549-8.760064l1.236715-2.57649h3.710145c35.864734-1.752013 72.141707-2.988728 107.697263-3.607085s72.141707-0.824477 107.697262-0.927536 72.141707 0.515298 107.697263 1.648953 72.141707 2.37037 107.697262 4.225443h2.47343a7.832528 7.832528 0 0 1 2.061192 1.545894l1.133655 1.236715a15.355878 15.355878 0 0 1 1.545894 2.37037 20.611916 20.611916 0 0 1 1.648953 4.534622 37.822866 37.822866 0 0 1 1.030596 8.347826 76.36715 76.36715 0 0 1-1.442834 15.458937 163.658615 163.658615 0 0 1-8.657005 28.753623zM781.191626 578.885668s6.389694-69.256039 72.141707-61.835749 75.027375 39.162641 70.801933 61.835749zM825.507246 552.502415a13.706924 11.130435 0 1 1 27.413849 0 13.706924 11.130435 0 1 1-27.413849 0ZM791.085346 80.180354a304.953301 304.953301 0 0 1-12.26409 28.135266 104.502415 104.502415 0 0 1-19.375201 27.929147A65.855072 65.855072 0 0 1 726.776167 153.971014a73.481481 73.481481 0 0 1-72.141706-26.692431 87.600644 87.600644 0 0 1-16.489533-34.628019 86.15781 86.15781 0 0 1-1.236715-36.173913 91.516908 91.516908 0 0 1 12.367149-31.845411A159.94847 159.94847 0 0 1 694.312399-21.230274a119.239936 119.239936 0 0 1 29.784219-15.252818 65.545894 65.545894 0 0 1 36.89533-1.442834 60.392915 60.392915 0 0 1 31.742352 21.127214 61.835749 61.835749 0 0 1 12.573268 34.318841 101.101449 101.101449 0 0 1-4.431562 33.391304c-2.885668 10.305958-6.286634 19.890499-9.79066 29.268921zM789.539452 50.911433a60.908213 60.908213 0 0 0-11.439613-24.322061A133.256039 133.256039 0 0 0 762.640902 9.687601a117.900161 117.900161 0 0 0-15.458937-12.47021 55.342995 55.342995 0 0 0-20.611917-8.863124 41.223833 41.223833 0 0 0-25.249597 3.194847 50.086957 50.086957 0 0 0-19.993559 17.41707 59.568438 59.568438 0 0 0-9.172303 24.734299 95.94847 95.94847 0 0 0 6.183575 46.582931 51.529791 51.529791 0 0 0 25.971015 26.177134 50.293076 50.293076 0 0 0 17.623188 4.431562 91.310789 91.310789 0 0 0 22.363929 0 58.640902 58.640902 0 0 0 24.940419-9.790661 50.911433 50.911433 0 0 0 17.417069-22.05475 49.26248 49.26248 0 0 0 2.885668-28.135266zM750.479871-99.143317l2.782609-28.856683c10.305958 0.927536 60.495974 6.904992 78.016103 32.669887l-24.012883 16.283414c-7.31723-10.718196-38.132045-18.344605-56.785829-20.096618z"  horiz-adv-x="1087" />

    
    <glyph glyph-name="bukaixin3" unicode="&#58895;" d="M879.75 746.125C782.375 842.75 653 896 515.25 896S248.125 842.75 150.875 746.125 0 520.75 0 384s53.625-265.375 150.875-362.125S377.625-128 515.25-128c137.75 0 267.25 53.25 364.5 150 200.875 199.625 200.875 524.375 0 724.125z m-47.5-676.875c-84.625-84.125-197.25-130.5-317-130.5S283-14.875 198.375 69.125C113.75 153.25 67.125 265 67.125 384s46.75 230.75 131.25 314.875C283.125 783 395.625 829.25 515.25 829.25S747.5 783 832.125 698.875c174.75-173.625 174.75-456.125 0.125-629.625zM331.625 574.875c-34.75 0-63.125-28.125-63.125-62.75s28.25-62.75 63.125-62.75 63.125 28.125 63.125 62.75c0 34.75-28.25 62.75-63.125 62.75zM698.75 574.875c-34.75 0-63.125-28.125-63.125-62.75s28.25-62.625 63.125-62.625 63.125 28.125 63.125 62.75-28.25 62.625-63.125 62.625zM758.25 62.25a28.883 28.883 0 0 0-27 18.75c-33.5 89.75-120.375 150-216.125 150S332.5 170.75 299 81c-5.5-14.875-22.125-22.5-37-16.875-14.875 5.5-22.5 22.125-16.875 37 20.375 54.5 56.25 101.125 103.875 134.75 48.75 34.5 106.25 52.75 166.125 52.75S632.5 270.25 681.25 235.75C728.875 202 764.875 155.5 785.125 101c5.5-14.875-2-31.375-16.875-37-3.25-1.125-6.625-1.75-10-1.75z"  horiz-adv-x="1031" />

    
    <glyph glyph-name="kefu" unicode="&#58884;" d="M420.981029 0.468114a105.237943 105.237943 0 1 1 210.446628 0 105.237943 105.237943 0 0 1-210.446628 0zM105.237943 421.449143c-31.568457 0-52.604343-21.065143-52.604343-52.6336v-105.237943c0-31.568457 21.035886-52.604343 52.604343-52.604343 31.597714 0 52.6336 21.035886 52.6336 52.604343v105.237943c0 31.597714-21.065143 52.6336-52.6336 52.6336z m0 52.604343a105.559771 105.559771 0 0 0 105.237943-105.237943v-105.237943a105.559771 105.559771 0 0 0-105.237943-105.237943A105.559771 105.559771 0 0 0 0 263.5776v105.237943a105.559771 105.559771 0 0 0 105.237943 105.237943z m841.9328-52.604343c-31.568457 0-52.604343-21.065143-52.604343-52.6336v-105.237943c0-31.568457 21.065143-52.604343 52.604343-52.604343 31.597714 0 52.6336 21.035886 52.6336 52.604343v105.237943c0 31.597714-21.065143 52.6336-52.6336 52.6336z m0 52.604343a105.559771 105.559771 0 0 0 105.237943-105.237943v-105.237943a105.559771 105.559771 0 0 0-105.237943-105.237943 105.559771 105.559771 0 0 0-105.237943 105.237943v105.237943a105.559771 105.559771 0 0 0 105.237943 105.237943z m-605.125486-105.237943h52.604343a130.282057 130.282057 0 0 1 131.569371-131.540114 130.282057 130.282057 0 0 1 131.540115 131.540114h52.6336c0-99.971657-84.202057-184.173714-184.173715-184.173714-100.000914 0-184.173714 84.202057-184.173714 184.173714z m26.302172 105.237943c-31.597714 0-52.6336 21.065143-52.6336 52.662857 0 31.5392 21.065143 52.604343 52.6336 52.604343 31.597714 0 52.6336-21.065143 52.6336-52.6336 0-26.331429-21.065143-52.6336-52.662858-52.6336z m315.713828 0c-31.568457 0-52.604343 21.065143-52.604343 52.662857 0 31.5392 21.065143 52.604343 52.604343 52.604343 31.597714 0 52.6336-21.065143 52.6336-52.6336 0-26.331429-21.065143-52.6336-52.6336-52.6336zM999.804343 421.449143h-105.237943c0 205.2096-163.137829 368.347429-368.347429 368.347428-205.238857 0-368.347429-163.137829-368.347428-368.347428H52.6336A471.625143 471.625143 0 0 0 526.218971 895.034514 471.625143 471.625143 0 0 0 999.804343 421.449143zM526.218971-52.136229V53.101714c136.8064 0 263.109486 73.669486 326.217143 194.706286l94.734629-47.396571c-84.1728-152.576-242.044343-252.547657-420.951772-252.547658z"  horiz-adv-x="1053" />

    
    <glyph glyph-name="jiazaizhong" unicode="&#59237;" d="M511.4-63.9c-52.7 0-104.4 9.1-153.5 27-47.5 17.3-91.4 42.4-130.6 74.6-78.8 64.6-133.5 154.8-154.4 253.9-4.1 19.5 8.4 38.5 27.8 42.6 19.5 4.1 38.5-8.4 42.6-27.8 17.4-83.1 63.4-158.8 129.5-213.1 32.9-27 69.8-48.1 109.6-62.6 41.2-15 84.5-22.6 128.8-22.6 100.4 0 194.9 39.1 265.9 110.1 71 71 110.1 165.4 110.1 265.9S848.3 578.9 777.3 650c-71 71-165.4 110.1-265.9 110.1-19.9 0-36 16.1-36 36s16.1 36 36 36c60.5 0 119.1-11.9 174.4-35.2 53.4-22.6 101.3-54.9 142.4-96 41.1-41.1 73.4-89 96-142.4 23.4-55.3 35.2-113.9 35.2-174.4S947.5 265 924.2 209.7c-22.6-53.4-54.9-101.3-96-142.4-41.1-41.1-89-73.4-142.4-96-55.3-23.4-113.9-35.2-174.4-35.2z"  horiz-adv-x="1024" />

    
    <glyph glyph-name="hongbao" unicode="&#59111;" d="M607.1 463.8l33.6-26.3-103.4-132-33.6 26.3 103.4 132z m-231.3-26.4l33.4 26.6 105-132.1-33.4-26.6-105 132.1z m3.8-233V247h264.5v-42.7H379.6zM486.3 309H529v-216.8h-42.7V309z m-106.7-21.4v42.7h264.5v-42.7H379.6zM213.3 768h597.3c35.3 0 64-28.7 64-64v-640c0-35.3-28.7-64-64-64H213.3c-35.3 0-64 28.7-64 64V704c0 35.3 28.7 64 64 64z m0-42.7c-11.8 0-21.3-9.6-21.3-21.3v-640c0-11.8 9.6-21.3 21.3-21.3h597.3c11.8 0 21.3 9.6 21.3 21.3V704c0 11.8-9.6 21.3-21.3 21.3H213.3zM174 722l39.6 15.8C261 618.8 378.8 538.7 512 538.7c131.9 0 248.7 78.5 297 195.8l39.4-16.3C793.6 585.1 661.2 496.1 512 496.1c-150.7 0-284.1 90.7-338 225.9z"  horiz-adv-x="1024" />

    
    <glyph glyph-name="zhanghuanquan" unicode="&#58990;" d="M512 822.542324l83.74175-44.809182a587.661406 587.661406 0 0 1 240.941177-68.315638h36.728838a4.407461 4.407461 0 0 0 3.672883-4.407461v-343.781922c0-202.743185-252.694405-415.770445-367.288378-415.770445S144.711621 161.423242 144.711621 362.697274v345.251076h48.482066a587.661406 587.661406 0 0 1 240.2066 69.784792L512 822.542324m0 73.457676a73.457676 73.457676 0 0 1-34.525108-8.814921L398.875179 845.314204a514.20373 514.20373 0 0 0-210.088952-60.969871H140.304161a73.457676 73.457676 0 0 1-68.315639-73.457676v-345.251076H71.253945c0-242.41033 284.281205-491.431851 440.746055-491.431851 152.791966 0 440.746055 247.552367 440.746055 489.228121V703.54089a77.865136 77.865136 0 0 1-73.457676 77.130559h-36.728838A514.20373 514.20373 0 0 0 629.532281 843.110473L545.055954 887.185079A73.457676 73.457676 0 0 1 512 896zM692.705882 449.377331L503.185079 259.856528a41.136298 41.136298 0 0 0-58.031564 0L328.355811 376.654232a41.136298 41.136298 0 0 0 0 58.031564 41.136298 41.136298 0 0 0 58.031563 0l58.031564-58.031564a41.136298 41.136298 0 0 1 58.031564 0l132.223817 130.754663a41.136298 41.136298 0 0 0 58.031563 0 41.136298 41.136298 0 0 0 0-58.031564z"  horiz-adv-x="1024" />

    
    <glyph glyph-name="bukaixin4" unicode="&#58635;" d="M879.75 746.125C782.375 842.75 653 896 515.25 896s-267.125-53.25-364.375-149.875S0 520.75 0 384s53.625-265.375 150.875-362.125S377.625-128 515.25-128c137.75 0 267.25 53.25 364.5 150C1080.625 221.625 1080.625 546.375 879.75 746.125zM832.25 69.25C747.625-14.875 635-61.25 515.25-61.25c-119.75 0-232.25 46.375-316.875 130.375-84.625 84.125-131.25 195.875-131.25 314.875s46.75 230.75 131.25 314.875c84.75 84.125 197.25 130.375 316.875 130.375s232.25-46.25 316.875-130.375C1006.875 525.25 1006.875 242.75 832.25 69.25zM331.625 574.875c-34.75 0-63.125-28.125-63.12499999-62.75s28.25-62.75 63.12499999-62.75c34.875 0 63.125 28.125 63.125 62.75C394.75 546.875 366.49999999 574.875 331.625 574.875L331.625 574.875 331.625 574.875 331.625 574.875 331.625 574.875zM698.75 574.875c-34.75 0-63.125-28.125-63.125-62.75S663.875 449.50000001 698.75 449.50000001c34.875 0 63.125 28.125 63.125 62.74999999C761.875 546.875 733.625 574.875 698.75 574.875L698.75 574.875 698.75 574.875 698.75 574.875 698.75 574.875zM758.25 62.25c-11.625 0-22.625 7.125-27 18.75-33.50000001 89.75-120.375 150-216.125 150S332.49999999 170.75 299 81c-5.50000001-14.875-22.125-22.50000001-37-16.875-14.875 5.50000001-22.50000001 22.125-16.875 37 20.375 54.50000001 56.25 101.125 103.875 134.75 48.75 34.50000001 106.25 52.75 166.125 52.75S632.50000001 270.25 681.25 235.75c47.625-33.75 83.625-80.25 103.875-134.75 5.50000001-14.875-2-31.375-16.875-37C765 62.875 761.625 62.25 758.25 62.25z"  horiz-adv-x="1031" />

    
    <glyph glyph-name="bukaixin5" unicode="&#58885;" d="M879.75 746.125C782.375 842.75 653 896 515.25 896S248.125 842.75 150.875 746.125 0 520.75 0 384s53.625-265.375 150.875-362.125S377.625-128 515.25-128c137.75 0 267.25 53.25 364.5 150 200.875 199.625 200.875 524.375 0 724.125z m-47.5-676.875c-84.625-84.125-197.25-130.5-317-130.5S283-14.875 198.375 69.125C113.75 153.25 67.125 265 67.125 384s46.75 230.75 131.25 314.875C283.125 783 395.625 829.25 515.25 829.25S747.5 783 832.125 698.875c174.75-173.625 174.75-456.125 0.125-629.625zM331.625 574.875c-34.75 0-63.125-28.125-63.125-62.75s28.25-62.75 63.125-62.75 63.125 28.125 63.125 62.75c0 34.75-28.25 62.75-63.125 62.75zM698.75 574.875c-34.75 0-63.125-28.125-63.125-62.75s28.25-62.625 63.125-62.625 63.125 28.125 63.125 62.75-28.25 62.625-63.125 62.625zM758.25 62.25a28.883 28.883 0 0 0-27 18.75c-33.5 89.75-120.375 150-216.125 150S332.5 170.75 299 81c-5.5-14.875-22.125-22.5-37-16.875-14.875 5.5-22.5 22.125-16.875 37 20.375 54.5 56.25 101.125 103.875 134.75 48.75 34.5 106.25 52.75 166.125 52.75S632.5 270.25 681.25 235.75C728.875 202 764.875 155.5 785.125 101c5.5-14.875-2-31.375-16.875-37-3.25-1.125-6.625-1.75-10-1.75z"  horiz-adv-x="1031" />

    
    <glyph glyph-name="gouwuchemanblue" unicode="&#58625;" d="M346.112 89.08799999999997q19.456 0 36.864-7.168t30.208-19.968 20.48-30.208 7.68-36.864-7.68-36.864-20.48-30.208-30.208-20.48-36.864-7.68q-20.48 0-37.888 7.68t-30.208 20.48-20.48 30.208-7.68 36.864 7.68 36.864 20.48 30.208 30.208 19.968 37.888 7.168zM772.096 87.03999999999996q19.456 0 37.376-7.168t30.72-19.968 20.48-30.208 7.68-36.864-7.68-36.864-20.48-30.208-30.72-20.48-37.376-7.68-36.864 7.68-30.208 20.48-20.48 30.208-7.68 36.864 7.68 36.864 20.48 30.208 30.208 19.968 36.864 7.168zM944.128 668.672q28.672 0 44.544-7.68t22.528-18.944 6.144-24.064-3.584-22.016-13.312-37.888-22.016-62.976-23.552-68.096-18.944-53.248q-13.312-40.96-33.28-56.832t-49.664-15.872l-35.84 0-65.536 0-86.016 0-96.256 0-253.952 0 14.336-92.16 517.12 0q49.152 0 49.152-41.984 0-20.48-9.728-35.328t-38.4-14.848l-49.152 0-94.208 0-118.784 0-119.808 0-99.328 0-55.296 0q-20.48 0-34.304 9.216t-23.04 24.064-14.848 32.256-8.704 32.768q-1.024 6.144-5.632 29.696t-11.264 58.88-14.848 78.848-16.384 87.552q-19.456 103.424-44.032 230.4l-76.8 0q-15.36 0-25.6 7.68t-16.896 18.432-9.216 23.04-2.56 22.528q0 20.48 13.824 33.792t37.376 13.312l21.504 0 21.504 0 25.6 0 34.816 0q20.48 0 32.768-6.144t19.456-15.36 10.24-19.456 5.12-17.408q2.048-8.192 4.096-23.04t4.096-30.208q3.072-18.432 6.144-38.912l700.416 0zM867.328 701.44l-374.784 0 135.168 135.168q23.552 23.552 51.712 24.064t51.712-23.04z"  horiz-adv-x="1024" />

    


  </font>
</defs>
</svg>
